<?xml version="1.0" standalone="no"?>
<!DOCTYPE svg PUBLIC "-//W3C//DTD SVG 20010904//EN"
 "http://www.w3.org/TR/2001/REC-SVG-20010904/DTD/svg10.dtd">
<svg version="1.0" xmlns="http://www.w3.org/2000/svg"
 width="765.000000pt" height="1280.000000pt" viewBox="0 0 765.000000 1280.000000"
 preserveAspectRatio="xMidYMid meet">
<g transform="translate(0.000000,1280.000000) scale(0.100000,-0.100000)"
fill="#000000" stroke="none">
<path d="M3710 12684 c-490 -43 -1010 -144 -1413 -275 -138 -45 -373 -156
-527 -249 -561 -339 -1015 -868 -1304 -1520 -179 -404 -282 -791 -343 -1280
-25 -203 -25 -745 0 -942 56 -447 154 -788 323 -1119 166 -327 389 -585 657
-761 56 -37 112 -74 123 -82 12 -9 40 -48 61 -88 56 -104 142 -241 216 -344
35 -49 66 -94 70 -101 4 -6 -8 -31 -27 -55 -177 -233 -379 -603 -526 -968
-299 -741 -464 -1519 -511 -2410 -14 -280 0 -453 53 -649 240 -884 1277 -1555
2729 -1766 165 -23 312 -38 669 -66 278 -21 790 12 1185 77 494 82 876 202
1258 396 659 336 1069 834 1186 1442 39 200 71 851 52 1056 -6 69 -16 186 -21
260 -51 644 -213 1274 -459 1777 -138 282 -256 461 -455 687 l-48 56 58 71
c424 511 664 1085 725 1733 16 173 6 489 -20 666 -22 141 -64 326 -107 468
-14 46 -23 89 -21 96 3 7 33 18 66 25 83 16 121 34 157 73 47 50 56 87 61 273
15 482 -118 1050 -368 1573 -482 1010 -1299 1663 -2352 1878 -263 53 -397 66
-762 69 -187 1 -360 1 -385 -1z"/>
</g>
</svg>
